<?xml version="1.0" standalone="no"?>
<!DOCTYPE svg PUBLIC "-//W3C//DTD SVG 20010904//EN"
 "http://www.w3.org/TR/2001/REC-SVG-20010904/DTD/svg10.dtd">
<svg version="1.0" xmlns="http://www.w3.org/2000/svg"
 width="700.000000pt" height="700.000000pt" viewBox="0 0 700.000000 700.000000"
 preserveAspectRatio="xMidYMid meet">
<metadata>
Created by potrace 1.14, written by Peter Selinger 2001-2017
</metadata>
<g transform="translate(0.000000,700.000000) scale(0.100000,-0.100000)"
fill="#000000" stroke="none">
<path d="M3085 6984 c-153 -19 -374 -63 -538 -108 -385 -107 -821 -322 -1149
-569 -450 -338 -794 -753 -1043 -1262 -184 -373 -294 -744 -340 -1145 -20
-182 -20 -618 0 -800 46 -401 156 -772 340 -1145 135 -275 267 -479 455 -704
580 -694 1402 -1134 2305 -1236 173 -20 597 -20 770 0 629 71 1219 304 1720
681 299 225 597 539 805 849 318 475 511 1002 575 1570 20 173 20 597 0 770
-90 796 -439 1525 -1001 2089 -537 538 -1206 876 -1979 998 -174 28 -734 35
-920 12z m810 -19 c1180 -138 2203 -856 2730 -1914 178 -357 299 -777 347
-1206 16 -142 16 -549 0 -690 -94 -829 -437 -1550 -1007 -2120 -570 -571
-1293 -914 -2120 -1007 -142 -16 -549 -16 -690 0 -771 88 -1443 388 -2007 897
-490 441 -864 1065 -1028 1715 -77 307 -104 532 -104 865 0 260 14 416 55 635
146 769 535 1457 1112 1967 594 524 1302 818 2117 877 107 8 467 -4 595 -19z"/>
<path d="M1392 5168 l3 -443 753 -3 752 -2 0 -2015 0 -2015 598 2 597 3 3
2012 2 2013 753 2 752 3 3 443 2 442 -2110 0 -2110 0 2 -442z"/>
</g>
</svg>
